<svg xmlns="http://www.w3.org/2000/svg" width="54" height="54" viewBox="0 0 18 18">
  <g id="Group_1" data-name="Group 1" transform="translate(-219 -237)">
    <path id="exited" d="M252,168a9,9,0,1,0-9-9A9,9,0,0,0,252,168Zm0-1a8,8,0,1,0-8-8A8,8,0,0,0,252,167Zm-3-9a1,1,0,1,0-1-1A1,1,0,0,0,249,158Zm6,0a1,1,0,1,0-1-1A1,1,0,0,0,255,158Z" transform="translate(-24 87)" fill-rule="evenodd"/>
    <path id="Path_1" data-name="Path 1" d="M224.08,250.042s3.4-8.5,7.823-.34" transform="translate(0.009 1)" fill="none" stroke="#000" stroke-width="1"/>
  </g>
</svg>
