<svg xmlns="http://www.w3.org/2000/svg" width="55.584" height="55.584" viewBox="0 0 55.584 55.584">
  <g id="Group_1" data-name="Group 1" transform="translate(-169 -218)">
    <path id="exited" d="M270.792,205.584a27.886,27.886,0,0,0,17.1-5.882,27.795,27.795,0,1,0-17.1,5.882Zm0-3.088a24.7,24.7,0,1,0-24.7-24.7A24.705,24.705,0,0,0,270.792,202.5ZM261.528,174.7a3.088,3.088,0,1,0-3.088-3.088A3.089,3.089,0,0,0,261.528,174.7Zm18.528,0a3.088,3.088,0,1,0-3.088-3.088A3.089,3.089,0,0,0,280.056,174.7Z" transform="translate(-74 68)" fill-rule="evenodd"/>
    <path id="Path_1" data-name="Path 1" d="M185,252.741s10.025,9.721,22.176,0" transform="translate(0.706 1)" fill="none" stroke="#000" stroke-width="3"/>
  </g>
</svg>
